<?xml version="1.0" standalone="no"?>
<!DOCTYPE svg PUBLIC "-//W3C//DTD SVG 20010904//EN"
 "http://www.w3.org/TR/2001/REC-SVG-20010904/DTD/svg10.dtd">
<svg version="1.0" xmlns="http://www.w3.org/2000/svg"
 width="2555.000000pt" height="2555.000000pt" viewBox="0 0 2555.000000 2555.000000"
 preserveAspectRatio="xMidYMid meet">
<metadata>
Created by potrace 1.14, written by Peter Selinger 2001-2017
</metadata>
<g transform="translate(0.000000,2555.000000) scale(0.100000,-0.100000)"
fill="#000000" stroke="none">
<path d="M6680 24135 c-955 -64 -1836 -301 -2695 -726 -730 -361 -1324 -787
-1895 -1358 -308 -308 -543 -587 -782 -926 -403 -571 -737 -1244 -951 -1915
-767 -2410 -285 -5184 1386 -7964 960 -1598 2257 -3147 3952 -4719 1575 -1460
3475 -2904 5670 -4309 497 -317 1270 -794 1314 -809 18 -7 42 -7 63 -1 19 5
47 5 67 0 21 -6 44 -5 62 1 45 15 687 409 1189 728 4488 2852 7737 5860 9632
8918 1257 2029 1894 4083 1855 5980 -20 932 -182 1766 -504 2595 -957 2462
-3237 4197 -5888 4479 -99 11 -292 25 -428 32 -398 20 -900 -8 -1354 -76
-2072 -310 -3614 -1328 -4522 -2982 -40 -73 -74 -133 -76 -133 -2 0 -36 60
-76 133 -670 1222 -1703 2110 -3034 2605 -926 345 -2028 510 -2985 447z
m-2080 -2285 c0 -3 16 -5 35 -6 19 0 32 3 29 8 -3 4 7 3 21 -2 15 -6 31 -7 37
-4 7 4 8 2 4 -4 -9 -15 18 -16 44 -2 15 8 25 3 51 -25 18 -19 42 -35 53 -37
16 -2 21 -10 19 -28 -1 -14 5 -44 12 -68 14 -42 14 -44 -12 -68 -17 -16 -21
-24 -11 -24 7 0 18 3 24 8 5 4 1 0 -8 -10 -10 -9 -18 -23 -18 -32 0 -9 -4 -16
-10 -16 -5 0 -10 -5 -10 -11 0 -5 5 -7 12 -3 7 4 1 -8 -12 -26 -14 -19 -26
-43 -27 -53 -2 -10 -15 -30 -31 -44 -15 -14 -18 -20 -7 -13 11 7 6 -1 -11 -16
-17 -16 -36 -44 -43 -62 -8 -18 -27 -43 -42 -57 -16 -13 -28 -28 -27 -33 3 -8
-16 -31 -127 -151 -33 -35 -54 -61 -47 -57 13 8 -63 -76 -174 -191 -28 -29
-48 -53 -45 -53 3 0 -21 -26 -54 -57 -53 -51 -112 -115 -260 -281 -22 -25 -52
-58 -67 -74 -14 -15 -25 -28 -22 -28 4 0 -10 -17 -61 -75 -11 -12 -33 -39 -50
-60 -16 -20 -39 -48 -50 -61 -11 -13 -29 -35 -40 -49 -41 -54 -60 -77 -77 -93
-10 -9 -18 -21 -18 -27 0 -6 -8 -18 -17 -26 -10 -9 -25 -26 -33 -38 -8 -13
-22 -31 -30 -41 -8 -10 -22 -28 -30 -40 -8 -12 -22 -30 -30 -40 -8 -10 -22
-28 -30 -40 -8 -12 -21 -28 -27 -36 -7 -7 -13 -17 -13 -23 0 -6 -4 -11 -10
-11 -5 0 -10 -6 -10 -13 0 -7 -11 -24 -25 -39 -14 -15 -25 -32 -25 -38 0 -5
-4 -10 -10 -10 -5 0 -10 -5 -10 -11 0 -11 -50 -82 -62 -87 -5 -2 -8 -10 -8
-18 0 -8 -4 -14 -10 -14 -5 0 -10 -7 -10 -15 0 -8 -4 -15 -10 -15 -5 0 -10 -5
-10 -11 0 -11 -51 -89 -74 -111 -7 -8 -16 -23 -20 -34 -3 -11 -14 -29 -24 -40
-9 -11 -28 -41 -42 -67 -14 -27 -33 -57 -42 -67 -10 -11 -18 -23 -18 -27 0 -5
-15 -31 -33 -58 -18 -28 -39 -65 -46 -82 -7 -18 -17 -33 -22 -33 -5 0 -9 -6
-9 -14 0 -8 -7 -22 -16 -30 -8 -9 -13 -16 -9 -16 3 0 -3 -10 -14 -22 -11 -11
-18 -25 -15 -30 3 -4 0 -8 -6 -8 -6 0 -9 -4 -6 -9 4 -5 3 -11 -2 -13 -4 -1
-41 -61 -82 -133 -40 -71 -77 -132 -82 -133 -4 -2 -6 -8 -2 -13 3 -5 0 -9 -7
-9 -7 0 -10 -3 -6 -6 3 -3 -3 -14 -14 -25 -10 -10 -19 -26 -19 -34 0 -8 -5
-15 -11 -15 -5 0 -7 -4 -4 -10 3 -5 1 -10 -4 -10 -6 0 -11 -5 -11 -11 0 -6 -9
-23 -20 -39 -11 -15 -16 -31 -12 -35 4 -5 2 -5 -5 -1 -7 4 -14 -3 -18 -16 -4
-12 -22 -45 -41 -74 -18 -28 -30 -55 -26 -59 4 -5 2 -5 -5 -1 -8 4 -15 -2 -19
-18 -3 -13 -19 -36 -35 -50 -16 -14 -29 -31 -29 -37 0 -5 -5 -7 -12 -3 -6 4
-8 3 -4 -4 3 -6 -3 -20 -15 -31 -13 -12 -19 -26 -15 -36 3 -9 2 -13 -4 -10 -6
3 -10 1 -10 -5 0 -6 -11 -16 -25 -22 -14 -6 -25 -17 -25 -25 0 -7 -4 -13 -10
-13 -11 0 -62 -49 -79 -76 -11 -18 -12 -18 -6 4 9 32 0 27 -23 -12 -15 -26
-28 -34 -56 -38 -20 -2 -37 0 -39 5 -1 5 -11 2 -20 -7 -17 -17 -57 -14 -57 4
0 16 -32 41 -46 36 -8 -3 -14 1 -14 8 0 8 -7 16 -15 19 -10 4 -13 16 -10 41 4
28 1 38 -16 47 -13 7 -19 17 -16 29 3 11 1 20 -5 22 -5 2 -10 14 -10 28 -1 14
-6 28 -10 31 -12 8 -16 111 -5 133 5 10 5 16 0 13 -5 -3 -8 40 -7 96 1 56 2
102 3 102 2 0 4 16 6 35 7 66 14 125 19 146 2 12 7 39 10 60 4 22 11 54 17 71
6 18 8 37 5 42 -4 5 -2 11 3 13 5 1 11 19 14 38 22 160 208 639 357 916 27 51
46 95 43 98 -4 3 -1 6 6 6 7 0 9 5 6 10 -3 6 -2 10 2 10 12 0 44 56 36 64 -3
3 0 6 7 6 7 0 11 3 7 6 -3 3 1 13 9 22 8 10 13 19 12 22 -2 3 7 16 19 29 12
13 20 28 17 33 -3 4 0 8 5 8 6 0 11 7 11 15 0 8 5 15 11 15 5 0 7 5 4 10 -3 6
-1 10 4 10 6 0 11 7 11 15 0 8 5 15 10 15 6 0 10 7 10 15 0 8 5 15 10 15 6 0
10 7 10 15 0 8 5 15 10 15 6 0 10 7 10 15 0 8 9 24 19 34 11 11 17 22 14 25
-3 3 2 8 11 12 9 3 16 12 16 20 0 8 5 14 10 14 6 0 10 7 10 15 0 8 5 15 10 15
6 0 10 5 10 11 0 10 105 154 139 191 9 10 25 29 36 44 30 39 66 83 97 116 15
16 32 36 36 45 45 80 502 525 666 648 29 22 61 48 102 83 14 12 32 22 39 22 7
0 15 7 19 15 3 8 12 15 20 15 7 0 16 7 20 15 3 8 10 15 16 15 10 0 21 8 55 38
7 6 18 12 24 12 6 0 11 5 11 10 0 6 7 10 15 10 8 0 15 5 15 12 0 6 3 9 6 5 4
-3 21 4 38 17 17 13 60 38 96 57 36 18 68 38 72 44 4 5 8 7 8 3 0 -4 22 4 49
17 27 14 55 25 62 25 8 0 23 7 33 15 11 8 28 15 38 15 10 0 18 4 18 9 0 8 28
19 69 27 8 2 26 6 40 10 35 10 41 11 79 12 19 1 31 6 27 12 -4 6 1 7 11 3 10
-3 15 -2 12 3 -4 5 9 9 28 9 19 0 34 -2 34 -5z m19347 -2906 c-3 -3 -12 -4
-19 -1 -8 3 -5 6 6 6 11 1 17 -2 13 -5z m53 -24 c0 -5 16 -12 35 -16 26 -5 37
-13 41 -30 3 -13 11 -24 18 -24 6 0 27 -17 46 -37 19 -21 26 -31 15 -23 -13
10 -10 4 8 -18 15 -19 25 -38 22 -42 -3 -5 0 -12 6 -16 8 -4 9 -3 5 4 -4 7 -2
12 3 12 6 0 11 -5 11 -12 0 -6 8 -20 18 -31 12 -15 13 -18 2 -12 -12 7 -12 5
1 -11 17 -20 35 -63 31 -76 -1 -5 3 -7 10 -5 6 1 16 -16 22 -38 6 -22 16 -49
22 -60 15 -26 39 -98 36 -107 -1 -5 2 -8 6 -8 5 0 9 -6 10 -12 5 -45 16 -78
24 -78 5 0 7 -4 4 -9 -3 -4 3 -33 14 -64 11 -31 20 -67 20 -80 0 -13 4 -27 10
-33 5 -5 10 -28 12 -52 2 -23 7 -42 12 -42 4 0 6 -9 3 -20 -3 -11 -1 -23 4
-26 5 -3 9 -17 9 -32 0 -15 7 -58 14 -96 8 -38 13 -73 10 -78 -3 -5 0 -15 6
-23 6 -8 9 -23 5 -34 -3 -10 -1 -22 5 -26 7 -4 9 -18 6 -32 -4 -13 -3 -29 1
-36 4 -7 8 -25 9 -42 0 -16 4 -55 7 -85 24 -209 31 -365 30 -675 0 -449 -29
-818 -98 -1250 -17 -108 -25 -196 -26 -309 l-1 -158 -63 -256 c-199 -802 -462
-1501 -877 -2332 -239 -479 -426 -808 -703 -1240 -245 -381 -427 -649 -447
-658 -5 -2 -8 -10 -8 -18 0 -8 -4 -14 -10 -14 -5 0 -10 -6 -10 -13 0 -7 -11
-24 -25 -39 -14 -15 -25 -31 -25 -36 0 -5 -11 -21 -25 -36 -14 -15 -25 -31
-25 -35 0 -4 -11 -20 -25 -35 -14 -15 -25 -29 -25 -31 0 -10 -65 -95 -72 -95
-4 0 -8 -7 -8 -15 0 -9 -7 -18 -15 -21 -8 -4 -15 -13 -15 -20 0 -8 -7 -17 -15
-20 -8 -4 -15 -13 -15 -20 0 -8 -7 -17 -15 -20 -8 -4 -15 -11 -15 -16 0 -5
-18 -29 -39 -51 -22 -23 -73 -85 -113 -138 -147 -194 -368 -458 -453 -544 -17
-16 -96 -107 -176 -200 -80 -94 -160 -182 -178 -197 -17 -15 -31 -30 -31 -33
2 -11 -450 -497 -651 -700 -218 -221 -442 -440 -419 -410 8 10 -28 -23 -80
-74 -52 -51 -131 -124 -175 -161 -44 -38 -106 -93 -139 -124 -32 -31 -62 -53
-67 -50 -5 3 -8 1 -7 -4 3 -10 -15 -26 -138 -117 -37 -27 -83 -65 -103 -82
-19 -18 -40 -33 -47 -33 -6 0 -22 -9 -35 -21 -13 -11 -18 -18 -11 -14 6 3 12
4 12 1 0 -3 -17 -15 -37 -26 -55 -30 -103 -67 -97 -73 3 -3 -3 -3 -14 0 -11 2
-23 0 -26 -6 -5 -7 -1 -8 10 -4 11 4 15 3 11 -5 -4 -6 -22 -14 -40 -18 -17 -3
-38 -15 -45 -25 -7 -11 -21 -19 -31 -19 -10 0 -30 -9 -44 -20 -14 -11 -40 -20
-59 -21 -29 -1 -30 -2 -9 -8 21 -6 22 -8 8 -19 -8 -7 -26 -10 -39 -7 -16 4
-29 1 -37 -9 -16 -19 -38 -20 -70 -2 -13 7 -32 11 -43 8 -15 -4 -16 -7 -6 -21
12 -15 11 -15 -7 -1 -27 20 -54 53 -55 65 0 5 8 -1 17 -14 15 -23 17 -23 23
-6 4 11 1 31 -7 45 -17 33 -16 55 2 70 9 8 13 21 9 36 -4 14 -1 31 7 40 12 15
14 14 20 -7 6 -20 7 -18 8 12 1 20 8 42 16 49 8 7 15 23 15 36 0 13 9 33 20
44 11 11 23 34 27 51 3 16 10 32 15 35 6 4 8 -3 4 -17 -4 -13 4 -1 18 27 13
28 29 54 35 58 6 4 19 27 30 51 11 25 23 45 26 45 3 0 1 -9 -5 -20 -6 -11 -8
-20 -5 -20 3 0 15 20 26 45 11 25 29 55 40 68 19 20 47 62 137 201 18 28 37
50 42 48 6 -1 9 1 8 6 -2 4 3 14 9 22 40 48 103 133 137 184 34 52 89 125 146
193 10 13 15 23 12 23 -4 0 7 12 23 26 17 14 23 22 15 19 -8 -4 -4 3 10 15 14
12 18 19 10 15 -8 -4 -4 3 10 15 14 12 18 18 10 14 -8 -4 -4 4 10 17 22 22
106 133 135 178 6 8 17 21 25 28 8 7 12 13 8 13 -3 0 7 14 23 31 16 17 26 36
22 43 -3 6 -3 8 2 4 4 -4 46 48 94 116 48 67 128 176 177 242 50 65 132 179
183 252 51 72 97 132 103 132 5 0 6 5 3 10 -3 6 1 13 9 16 9 3 14 10 11 14 -3
5 3 13 12 19 10 6 14 11 10 11 -12 0 52 90 64 90 6 0 8 4 4 9 -3 6 2 14 11 19
9 5 15 12 14 16 -3 11 72 116 83 116 6 0 7 3 4 6 -4 4 23 49 58 100 36 52 65
97 65 100 0 4 23 42 50 85 28 43 50 80 50 83 0 3 30 52 67 108 135 210 256
405 286 463 17 33 33 62 36 65 4 3 17 27 31 53 14 27 32 56 41 66 9 10 20 27
23 39 4 12 12 22 17 22 5 0 9 6 9 14 0 8 6 21 14 28 7 8 17 24 20 36 4 12 12
22 17 22 5 0 9 6 9 14 0 8 6 21 14 28 7 8 17 24 20 36 4 12 11 22 16 22 4 0
11 11 14 25 4 14 11 25 16 25 6 0 10 5 10 10 0 6 69 135 154 288 210 378 248
452 454 877 518 1066 833 1893 1121 2950 87 320 218 869 223 935 0 8 5 20 10
27 5 7 7 17 3 23 -4 6 -2 17 4 24 6 7 9 20 5 29 -3 8 0 18 6 22 6 4 8 15 5 25
-3 10 -1 21 5 25 6 4 8 15 5 25 -3 10 -1 21 5 25 6 4 8 16 5 26 -4 11 -1 26 5
34 6 8 9 19 5 25 -4 6 -2 17 4 24 7 8 11 18 9 22 -1 5 4 34 11 64 6 30 23 118
36 195 14 77 30 163 35 190 6 28 13 65 15 83 12 84 16 111 39 227 9 44 23 125
31 180 15 103 26 160 44 230 10 41 34 228 35 278 1 15 4 27 7 27 6 0 17 54 25
120 2 14 6 39 10 55 4 17 7 40 7 53 -1 12 2 22 6 22 3 0 7 17 9 38 1 20 7 51
13 69 6 18 11 46 11 62 1 18 5 28 11 24 6 -3 7 -1 4 4 -4 6 0 30 8 53 8 23 12
47 8 53 -3 6 -1 7 5 3 8 -4 12 0 12 11 0 11 6 25 13 32 10 11 9 13 -1 7 -6 -4
-1 13 12 39 14 25 20 43 15 39 -13 -8 9 33 38 69 12 15 20 34 17 41 -3 8 7 18
25 26 17 7 31 17 31 22 0 5 10 13 23 18 30 12 87 12 87 0z m-22183 -1092 c-3
-7 -5 -2 -5 12 0 14 2 19 5 13 2 -7 2 -19 0 -25z"/>
</g>
</svg>
